<svg xmlns="http://www.w3.org/2000/svg" width="1200" height="630" viewBox="0 0 1200 630" role="img" aria-labelledby="title desc">
  <title id="title">ASA 101 Skipper Trainer</title>
  <desc id="desc">Free ASA 101 practice test, sailing simulator, and basic keelboat study guide.</desc>
  <rect width="1200" height="630" fill="#f7f5ef"/>
  <rect y="424" width="1200" height="206" fill="#2b6e91"/>
  <path d="M0 472 C180 420 310 514 480 462 S785 415 1200 475 V630 H0 Z" fill="#1f5d7e" opacity=".65"/>
  <path d="M730 120 L730 470" stroke="#20313b" stroke-width="10" stroke-linecap="round"/>
  <path d="M740 145 C860 270 910 375 910 470 H748 Z" fill="#ffffff" stroke="#20313b" stroke-width="8" stroke-linejoin="round"/>
  <path d="M716 175 C620 300 582 405 582 470 H714 Z" fill="#e7f3e9" stroke="#20313b" stroke-width="8" stroke-linejoin="round"/>
  <path d="M540 470 H950 L896 528 H596 Z" fill="#ffffff" stroke="#20313b" stroke-width="8" stroke-linejoin="round"/>
  <circle cx="766" cy="505" r="8" fill="#146a8c"/>
  <text x="96" y="164" fill="#146a8c" font-family="Arial, Helvetica, sans-serif" font-size="34" font-weight="700">SAILINGTRAINER.COM</text>
  <text x="92" y="248" fill="#20313b" font-family="Arial, Helvetica, sans-serif" font-size="76" font-weight="700">ASA 101 Skipper Trainer</text>
  <text x="96" y="318" fill="#20313b" font-family="Arial, Helvetica, sans-serif" font-size="38">Practice tests, simulator missions, and beginner sailing guides</text>
  <text x="96" y="378" fill="#60707b" font-family="Arial, Helvetica, sans-serif" font-size="30">Free basic keelboat study path for new sailors</text>
</svg>
